<?xml version="1.0" standalone="no"?>
<!DOCTYPE svg PUBLIC "-//W3C//DTD SVG 20010904//EN"
 "http://www.w3.org/TR/2001/REC-SVG-20010904/DTD/svg10.dtd">
<svg version="1.0" xmlns="http://www.w3.org/2000/svg"
 width="1124.000000pt" height="504.000000pt" viewBox="0 0 1124.000000 504.000000"
 preserveAspectRatio="xMidYMid meet">
<metadata>
Created by potrace 1.16, written by Peter Selinger 2001-2019
</metadata>
<g transform="translate(0.000000,504.000000) scale(0.100000,-0.100000)"
fill="#000000" stroke="none">
<path d="M2430 4474 c-14 -3 -74 -11 -135 -20 -180 -26 -339 -72 -520 -152
-128 -56 -340 -209 -459 -329 -278 -283 -440 -619 -490 -1015 -21 -168 -20
-284 3 -460 20 -148 26 -171 88 -363 116 -360 365 -657 714 -854 204 -115 340
-157 539 -166 150 -7 197 -15 315 -52 154 -49 191 -73 573 -362 86 -66 295
-178 417 -224 39 -15 115 -39 170 -53 92 -25 115 -27 295 -27 181 -1 202 1
295 26 117 32 133 38 242 93 100 50 240 150 249 176 6 20 -11 48 -29 48 -6 0
-50 -20 -98 -45 -124 -64 -269 -98 -414 -97 -201 1 -391 58 -637 194 -35 19
-204 133 -288 193 -41 30 -92 64 -113 75 -65 35 -50 49 104 99 63 21 226 107
325 173 127 83 304 254 403 388 60 82 159 257 187 330 51 138 74 208 74 227 0
12 7 42 15 65 19 59 45 281 45 397 0 137 -18 313 -42 416 -22 94 -63 226 -78
254 -5 9 -21 45 -35 80 -86 209 -256 428 -467 598 -70 56 -88 69 -208 145
-112 71 -281 140 -446 181 -193 49 -479 78 -594 61z m420 -183 c165 -44 283
-99 437 -207 174 -121 287 -246 391 -429 44 -78 69 -130 137 -291 8 -18 17
-49 20 -70 4 -22 13 -59 20 -84 25 -82 55 -333 55 -460 0 -149 -25 -353 -63
-515 -33 -137 -92 -276 -195 -455 -149 -259 -346 -421 -626 -516 -100 -34
-126 -31 -241 26 -133 67 -283 114 -436 135 -120 17 -133 17 -245 1 -66 -9
-143 -24 -171 -32 -52 -15 -54 -15 -100 11 -210 115 -431 417 -521 712 -57
188 -63 213 -72 290 -5 43 -14 108 -20 144 -23 130 4 534 45 669 7 25 23 81
35 125 12 44 40 123 62 175 124 292 274 462 573 647 74 46 196 95 302 122 114
29 121 29 333 27 164 -3 208 -6 280 -25z M7162 3788 c-5 -7 -18 -38 -27 -68
-50 -165 -102 -281 -160 -360 -72 -98 -152 -150 -276 -181 -92 -23 -109 -36
-109 -85 0 -53 17 -58 184 -64 l151 -5 5 -765 c6 -842 5 -821 70 -951 41 -80
104 -138 207 -191 l86 -43 146 1 c164 0 203 10 336 87 76 44 182 145 191 183
8 31 -2 70 -20 77 -7 3 -47 -18 -87 -47 -107 -77 -167 -99 -264 -100 -72 -1
-88 3 -147 32 -84 41 -119 87 -147 191 -21 76 -21 94 -19 802 l3 724 300 5
c165 3 306 9 313 13 17 12 16 121 -2 136 -10 9 -95 12 -304 10 -160 -1 -295 2
-301 5 -8 5 -11 97 -11 291 0 156 -3 290 -6 299 -8 20 -96 22 -112 4z M5310
3233 c-275 -45 -496 -176 -571 -338 -38 -81 -45 -186 -15 -248 40 -82 162
-114 238 -62 65 44 81 84 85 207 2 97 5 115 30 161 67 125 277 189 453 138 94
-27 143 -56 199 -117 86 -94 111 -190 111 -431 0 -116 -3 -155 -14 -166 -17
-16 -74 -38 -176 -66 -41 -11 -131 -37 -200 -56 -69 -20 -156 -45 -195 -55
-38 -10 -106 -31 -150 -48 -278 -102 -420 -226 -481 -420 -57 -179 -12 -392
108 -510 50 -50 107 -84 198 -120 60 -24 77 -26 220 -26 141 0 162 3 230 26
155 54 280 126 385 222 27 26 55 46 62 46 15 0 15 1 37 -82 21 -74 94 -156
168 -189 43 -19 70 -23 148 -24 117 0 189 25 288 101 81 61 100 91 86 131 -13
37 -38 40 -79 8 -109 -82 -246 -61 -275 43 -6 23 -10 270 -10 672 0 581 -2
643 -19 725 -10 50 -27 108 -38 130 -90 190 -258 308 -493 345 -62 9 -278 12
-330 3z m528 -1337 l2 -330 -26 -37 c-69 -100 -209 -194 -339 -230 -110 -30
-235 -24 -317 15 -81 39 -135 90 -166 155 -23 48 -26 69 -27 156 0 111 14 160
72 251 63 101 190 177 408 248 214 69 340 104 365 103 l25 -2 3 -329z M8860
3226 c-103 -22 -217 -64 -289 -106 -79 -46 -183 -139 -218 -193 -35 -55 -63
-142 -63 -194 0 -113 104 -201 209 -178 47 10 107 59 130 108 18 38 21 60 20
148 -2 93 0 108 22 144 46 79 90 110 193 136 195 51 400 -9 488 -142 64 -96
80 -169 85 -374 3 -140 1 -183 -9 -195 -13 -16 -81 -40 -228 -81 -41 -11 -95
-27 -120 -34 -25 -8 -79 -24 -120 -35 -163 -47 -366 -117 -424 -147 -74 -38
-166 -106 -210 -153 -136 -152 -173 -409 -85 -588 55 -112 145 -188 289 -242
59 -23 80 -25 215 -25 128 0 161 3 221 22 142 45 356 172 426 253 32 37 43 33
52 -14 4 -20 13 -48 21 -63 8 -15 15 -33 15 -38 0 -24 87 -99 146 -127 60 -28
69 -30 172 -26 103 3 113 5 184 41 41 21 98 58 126 83 44 38 52 51 52 80 0 49
-21 52 -94 16 -77 -38 -114 -46 -163 -33 -57 16 -89 55 -107 131 -13 55 -16
163 -16 681 0 382 -4 638 -10 675 -41 227 -195 389 -435 454 -103 28 -374 37
-475 16z m574 -1012 c3 -9 6 -156 6 -328 l0 -313 -26 -39 c-63 -92 -210 -192
-352 -239 -73 -24 -237 -17 -302 12 -63 29 -137 97 -165 153 -52 102 -51 245
1 359 33 73 130 165 230 218 89 47 270 110 441 153 64 16 118 32 121 35 11 11
40 4 46 -11z"/>
</g>
</svg>
